<?xml version="1.0" ?><!DOCTYPE svg  PUBLIC '-//W3C//DTD SVG 1.1//EN'  'http://www.w3.org/Graphics/SVG/1.1/DTD/svg11.dtd'><svg enable-background="new 0 0 512 512" height="512px" id="Layer_1" version="1.1" viewBox="0 0 512 512" width="512px" xml:space="preserve" xmlns="http://www.w3.org/2000/svg" xmlns:xlink="http://www.w3.org/1999/xlink"><g><g><g><path d="M253.278,236.91c-7.001,0-13.314,3.499-18.763,10.393l-0.189,0.253v35.302l0.136,0.216     c4.405,6.811,11.581,10.884,19.209,10.884c11.785,0,17.762-9.936,17.762-29.517C271.434,246.932,264.816,236.91,253.278,236.91z" fill="#333333"/><path d="M312.809,264.217c-10.551,0-16.872,5.434-16.872,14.533c0,10.144,5.254,15.721,14.796,15.721     c8.129,0,15.339-3.838,20.342-10.815l0.155-0.24V268.55l-0.447-0.255C325.691,265.391,320.482,264.217,312.809,264.217z" fill="#333333"/><path d="M481.641,97.198H29.909c-16.638,0-30.126,13.488-30.126,30.126v257.901     c0,16.638,13.488,30.126,30.126,30.126h451.732c16.638,0,30.126-13.488,30.126-30.126V127.324     C511.767,110.686,498.279,97.198,481.641,97.198z M80.732,287.266c5.893,0,11.616-2.669,16.56-7.707l0.308-0.301l7.913,9.578     l-0.212,0.237c-6.576,7.779-14.476,11.562-24.185,11.562c-9.736,0-18.647-3.256-25.062-9.195     c-6.977-6.404-10.656-15.458-10.656-26.146c0-10.689,3.679-19.719,10.656-26.123c6.416-5.91,15.326-9.19,25.062-9.19     c9.709,0,17.609,3.78,24.185,11.56l0.212,0.257l-7.913,9.573l-0.308-0.308c-4.944-5.052-10.667-7.725-16.56-7.725     c-12.302,0-21.236,9.24-21.236,21.955C59.497,278.032,68.43,287.266,80.732,287.266z M127.489,299.33h-13.98v-68.243h13.98     V299.33z M179.718,297.152l-0.143,0.096c-2.307,1.376-6.104,3.251-12.401,3.132c-9.287-0.193-15.503-7.364-15.503-17.853v-38.526     h-11.82V231.15h11.82v-13.9l13.701-7.336v21.236h14.243v12.851h-14.243v36.215c0,5.31,2.042,7.695,6.56,7.695     c3.12,0,6.589-1.147,10.325-3.416l0.82-0.504L179.718,297.152z M207.82,299.33h-13.993v-68.243h13.993V299.33z M200.547,220.049     l-0.187-0.194c-10.968-11.291-25.252-17.269-39.946-17.269c-14.694,0-28.983,5.978-39.935,17.269l-0.171,0.194h-16.086     l0.655-0.929c12.75-18.09,33.964-28.881,55.537-28.881c21.579,0,42.787,10.791,55.557,28.881l0.646,0.929H200.547z      M255.917,300.756h-3.156c-6.601-0.407-11.994-3.274-16.882-8.927l-1.552-1.812c0,0,0,7.933,0,9.312c-1.306,0-6.643,0-7.962,0     c0-1.716,0-88.652,0-89.652c0.674-0.4,6.094-3.496,7.962-4.556c0,2.787,0,36.275,0,36.275l1.54-1.693     c5.883-6.492,12.385-9.646,19.862-9.646c14.968,0,23.558,12.469,23.558,34.238C279.286,285.732,270.163,299.842,255.917,300.756z      M339.208,299.33c-1.324,0-6.663,0-7.979,0c0-1.414,0-9.891,0-9.891l-1.545,1.717c-5.456,6.005-11.652,9.174-18.929,9.6h-3.386     c-6.875-0.397-19.253-3.587-19.253-21.346c0-15.776,13.022-21.377,25.223-21.377c6.133,0,12.186,1.409,16.572,3.873l1.317,0.724     v-9.732c0-10.791-5.271-16.254-15.691-16.254c-6.424,0-12.225,1.613-18.158,4.968c-0.529-1.203-2.378-5.288-2.885-6.44     c6.21-3.28,13.884-5.112,21.698-5.112c15.487,0,23.015,7.074,23.015,21.647C339.208,251.706,339.208,297.625,339.208,299.33z      M406.369,299.33c-1.317,0-6.662,0-7.999,0c0-1.7,0-39.798,0-39.798c0-15.446-5.366-22.622-16.98-22.622     c-11.123,0-17.768,8.466-17.768,22.622c0,0,0,38.098,0,39.798c-1.307,0-6.669,0-7.975,0c0-1.705,0-66.112,0-67.803     c1.306,0,6.668,0,7.975,0c0,1.402,0,10.512,0,10.512l1.618-2.436c4.112-6.149,10.565-9.543,18.11-9.543     c15.043,0,23.018,9.597,23.018,27.752C406.369,257.811,406.369,297.63,406.369,299.33z M469.781,299.33c-2.104,0-7.597,0-8.447,0     c-0.48-0.968-17.695-37.424-17.695-37.424l-12.851,18.018c0,0,0,17.792,0,19.405c-1.329,0-6.668,0-7.982,0     c0-1.716,0-88.652,0-89.652c0.704-0.4,6.099-3.496,7.982-4.556c0,2.889,0,65.095,0,65.095l4.357-6.772     c-0.01,0.024,19.561-28.309,22.065-31.918c0.7,0,6.383,0,8.733,0c-1.86,2.487-17.244,23.665-17.244,23.665     s19.091,39.797,21.082,43.898V299.33z" fill="#333333"/></g></g></g></svg>