<?xml version="1.0" ?><svg style="enable-background:new 0 0 32 32;" version="1.1" viewBox="0 0 32 32" xml:space="preserve" xmlns="http://www.w3.org/2000/svg" xmlns:xlink="http://www.w3.org/1999/xlink"><style type="text/css">
	.st0{fill:#222A30;}
	.st1{fill:none;stroke:#222A30;stroke-width:1.8761;stroke-linejoin:round;stroke-miterlimit:10;}
	.st2{fill:#171715;}
	.st3{fill-rule:evenodd;clip-rule:evenodd;fill:#222A30;}
</style><g id="Layer_1"/><g id="icons"><path class="st0" d="M16,2C8.3,2,2,8.3,2,16c0,7.7,6.3,14,14,14c7.7,0,14-6.3,14-14C30,8.3,23.7,2,16,2z M22.9,10.5   c-0.2,0-0.4,0-0.7,0c-0.9,0-1.6,0.4-1.9,1.1c-0.1,0.4-0.2,0.8-0.4,1.3c0,0.1,0,0.1,0.1,0.1h1c0.5,0,0.7,0.2,0.7,0.6   c0,0.3-0.1,0.6-0.2,0.9c-0.1,0.3-0.4,0.5-0.9,0.5c-0.3,0-0.7,0-1,0c-0.1,0-0.1,0-0.1,0.1c-0.2,0.8-0.3,1.6-0.5,2.4   c-0.2,1-0.4,2-0.6,3c-0.4,1.8-1.8,2.8-4,2.8c-1.8,0-3.6,0-5.5,0c-0.4,0-0.5-0.1-0.4-0.4c0.1-0.4,0.2-0.8,0.4-1.3   c0.1-0.4,0.3-0.5,0.8-0.5h3.9c1.1,0,1.6-0.4,1.8-1.2c0.4-1.6,0.7-3.2,1-4.8c0,0,0-0.1,0-0.2c-0.6,0-1.2,0-1.7,0   c-0.3,0-0.5-0.1-0.6-0.4c-0.1-0.4-0.2-0.7-0.3-1.1c-0.1-0.3,0-0.5,0.4-0.5h2.5c0.1,0,0.1,0,0.1-0.1c0.1-0.3,0.1-0.6,0.2-0.9   c0.3-1.3,1-2.4,2.6-3.1c0.8-0.3,1.7-0.5,2.5-0.4c0.5,0,1,0.3,1.1,0.8c0.1,0.2,0.1,0.4,0.1,0.6C23.6,10.3,23.4,10.5,22.9,10.5z" id="flipkart"/></g></svg>